<?xml version="1.0" encoding="UTF-8" standalone="no"?>
<!-- Created with Inkscape (http://www.inkscape.org/) -->

<svg
   xmlns:dc="http://purl.org/dc/elements/1.1/"
   xmlns:cc="http://creativecommons.org/ns#"
   xmlns:rdf="http://www.w3.org/1999/02/22-rdf-syntax-ns#"
   xmlns:svg="http://www.w3.org/2000/svg"
   xmlns="http://www.w3.org/2000/svg"
   xmlns:sodipodi="http://sodipodi.sourceforge.net/DTD/sodipodi-0.dtd"
   xmlns:inkscape="http://www.inkscape.org/namespaces/inkscape"
   version="1.1"
   width="512"
   height="512"
   id="svg18605"
   inkscape:version="0.91 r13725"
   sodipodi:docname="Med_logo_simpleicon.svg">
  <sodipodi:namedview
     pagecolor="#ffffff"
     bordercolor="#666666"
     borderopacity="1"
     objecttolerance="10"
     gridtolerance="10"
     guidetolerance="10"
     inkscape:pageopacity="0"
     inkscape:pageshadow="2"
     inkscape:window-width="1920"
     inkscape:window-height="1027"
     id="namedview4142"
     showgrid="false"
     fit-margin-top="0"
     fit-margin-left="0"
     fit-margin-right="0"
     fit-margin-bottom="0"
     inkscape:zoom="0.062545455"
     inkscape:cx="-3824.4193"
     inkscape:cy="-260.56597"
     inkscape:window-x="-8"
     inkscape:window-y="-8"
     inkscape:window-maximized="1"
     inkscape:current-layer="svg18605" />
  <defs
     id="defs18607" />
  <metadata
     id="metadata18610">
    <rdf:RDF>
      <cc:Work
         rdf:about="">
        <dc:format>image/svg+xml</dc:format>
        <dc:type
           rdf:resource="http://purl.org/dc/dcmitype/StillImage" />
        <dc:title></dc:title>
      </cc:Work>
    </rdf:RDF>
  </metadata>
  <path
     inkscape:connector-curvature="0"
     style="display:inline;fill:#000000;fill-opacity:1;stroke:none;stroke-opacity:1"
     id="path18007-6-3-6"
     d="m 199.41963,439.10798 c 22.51621,11.42192 111.95612,-1.17265 103.21953,-50.1059 -3.76206,-21.07114 -12.00891,-26.36131 -35.1181,-37.28569 -0.19703,7.3827 -1.07025,15.86258 -1.26903,23.18826 13.19749,7.15557 20.26388,12.01109 19.7541,23.32506 -0.64572,14.33107 -13.79676,20.85136 -28.81026,25.06507 1.36409,-46.31146 1.63634,-71.45254 2.91925,-120.33562 -7.6985,2.21855 -14.14979,3.01688 -20.95998,6.174 0.38432,14.64177 1.02241,20.38319 1.42808,31.23809 -18.34185,-6.01885 -34.0645,-12.7014 -32.30615,-23.0984 4.44821,-26.30196 132.96268,-24.17483 122.48981,-90.23726 -3.39878,-21.43918 -32.37317,-29.64686 -57.62937,-37.22632 -0.22962,8.85426 -1.55454,20.55599 -1.80991,30.46459 13.60166,6.08784 30.12788,7.6392 30.00744,18.53447 -0.10316,9.3292 -21.83462,14.33006 -40.92886,22.14157 1.39935,-53.63275 3.12715,-96.54185 3.8507,-122.01861 -9.80129,-1.36065 -20.65682,-1.6062 -29.91944,-0.45817 0.018,6.34891 0.3288,19.49472 0.74747,39.97682 -26.77916,-7.33095 -60.76674,-16.80451 -50.17941,-35.69196 10.04578,-17.92128 81.12628,-16.50645 103.16377,-12.70032 55.42238,14.743 88.77214,0.3643 75.76559,-15.27294 -0.99743,-1.8224 -34.03131,-20.993321 -44.00547,-25.093702 -3.74034,-1.537675 -7.78675,-1.967415 -12.05304,-1.775254 -7.11046,0.320369 -14.60205,3.722921 -20.83588,4.577196 -2.46158,0.337319 -10.76027,-1.385326 -21.95709,-1.306991 -1.27195,-33.563435 4.17247,-59.173942 0.74802,-63.632631 -4.12261,-5.36777 0.47658,-12.497159 -11.49242,-11.585957 -10.09884,0.768852 -34.74888,-16.0735299 -40.55053,-16.0707194 l 1.5e-4,-1.495e-4 c -1.0744,5.381e-4 -1.45807,0.5862897 -1.02779,1.9621226 1.00952,3.2278675 14.06629,48.1721953 18.50002,92.2224703 -31.34069,2.613655 -77.14952,13.533965 -83.16175,35.408935 -16.16045,58.79827 45.36162,69.42347 88.17476,82.42661 0.47933,21.68674 0.55753,26.80561 1.24709,54.3695 -29.28396,15.39363 -66.54411,27.81641 -59.2106,56.28993 6.85926,26.63207 40.16295,34.94305 62.94744,44.25148 0.66048,23.70118 1.00585,36.22924 1.69804,58.69112 -3.65933,1.83067 -21.58631,5.58037 -41.65056,8.7859 -2.02607,0.32368 -2.79701,3.24869 -1.78567,4.80336 z m 57.40922,7.26375 c 0,0 -12.94456,2.21435 -14.73922,2.75194 1.04272,22.88599 -0.31491,34.82621 0.39052,62.97982 4.57333,-6.7822 13.33354,-41.57006 14.3487,-65.73176 z"
     sodipodi:nodetypes="csccsccccssccsccccsccscscssccscsccsccscccccc" />
  <ellipse
     style="color:#000000;clip-rule:nonzero;display:inline;overflow:visible;visibility:visible;opacity:1;isolation:auto;mix-blend-mode:normal;color-interpolation:sRGB;color-interpolation-filters:linearRGB;solid-color:#000000;solid-opacity:1;fill:#ffffff;fill-opacity:1;fill-rule:nonzero;stroke:none;stroke-width:5;stroke-linecap:butt;stroke-linejoin:miter;stroke-miterlimit:4;stroke-dasharray:none;stroke-dashoffset:0;stroke-opacity:1;marker:none;color-rendering:auto;image-rendering:auto;shape-rendering:auto;text-rendering:auto;enable-background:accumulate"
     id="path4146"
     cx="307.78528"
     cy="105.14449"
     rx="8.4791145"
     ry="6.0565104" />
</svg>
